<svg width="32" height="32" viewBox="0 0 32 32" fill="none" xmlns="http://www.w3.org/2000/svg">
<path d="M12.0001 29.3333C12.7365 29.3333 13.3334 28.7363 13.3334 28C13.3334 27.2636 12.7365 26.6666 12.0001 26.6666C11.2637 26.6666 10.6667 27.2636 10.6667 28C10.6667 28.7363 11.2637 29.3333 12.0001 29.3333Z" stroke="#212429" stroke-width="2" stroke-linecap="round" stroke-linejoin="round"/>
<path d="M26.6666 29.3333C27.403 29.3333 27.9999 28.7363 27.9999 28C27.9999 27.2636 27.403 26.6666 26.6666 26.6666C25.9302 26.6666 25.3333 27.2636 25.3333 28C25.3333 28.7363 25.9302 29.3333 26.6666 29.3333Z" stroke="#212429" stroke-width="2" stroke-linecap="round" stroke-linejoin="round"/>
<path d="M1.33325 1.33337H6.66658L10.2399 19.1867C10.3618 19.8006 10.6958 20.352 11.1833 20.7444C11.6708 21.1369 12.2808 21.3454 12.9066 21.3334H25.8666C26.4923 21.3454 27.1023 21.1369 27.5899 20.7444C28.0774 20.352 28.4113 19.8006 28.5332 19.1867L30.6666 8.00004H7.99992" stroke="#212429" stroke-width="2" stroke-linecap="round" stroke-linejoin="round"/>
</svg>
