<svg width="659" height="748" viewBox="0 0 659 748" fill="none" xmlns="http://www.w3.org/2000/svg">
<rect x="350.783" y="456.823" width="16.5959" height="118.177" fill="#56533B"/>
<path d="M357.5 354.896L491.301 487.845H223.699L357.5 354.896Z" fill="#25A040"/>
<path d="M357.105 295.807L486.457 430.972H227.753L357.105 295.807Z" fill="#24B143"/>
<path d="M357.105 250.013L459.081 361.912H255.129L357.105 250.013Z" fill="#25BB46"/>
<path d="M357.5 211.606L456.396 290.267H258.604L357.5 211.606Z" fill="#1BC841"/>
<path d="M358.685 204.22L440.814 249.644H276.557L358.685 204.22Z" fill="#1BC040"/>
<path d="M359.081 143.654L438.129 224.531H280.032L359.081 143.654Z" fill="#21C946"/>
<path d="M357.5 112.633L420.123 176.892H294.877L357.5 112.633Z" fill="#29B849"/>
<path d="M357.105 69.7935L409.12 134.052H305.09L357.105 69.7935Z" fill="#30CF53"/>
<path d="M357.105 24L405.013 92.6903H309.197L357.105 24Z" fill="#44E166"/>
<rect x="497.783" y="521.823" width="16.5959" height="118.177" fill="#56533B"/>
<path d="M504.5 419.896L638.301 552.845H370.699L504.5 419.896Z" fill="#25A040"/>
<path d="M504.105 360.807L633.457 495.972H374.753L504.105 360.807Z" fill="#24B143"/>
<path d="M504.105 315.013L606.081 426.912H402.129L504.105 315.013Z" fill="#25BB46"/>
<path d="M504.5 276.606L603.396 355.267H405.604L504.5 276.606Z" fill="#1BC841"/>
<path d="M505.685 269.22L587.814 314.644H423.557L505.685 269.22Z" fill="#1BC040"/>
<path d="M506.081 208.654L585.129 289.531H427.032L506.081 208.654Z" fill="#21C946"/>
<path d="M504.5 177.633L567.123 241.892H441.877L504.5 177.633Z" fill="#29B849"/>
<path d="M504.105 134.793L556.12 199.052H452.09L504.105 134.793Z" fill="#30CF53"/>
<path d="M504.105 89L552.013 157.69H456.197L504.105 89Z" fill="#15C13B"/>
<rect x="188.783" y="432.823" width="16.5959" height="118.177" fill="#56533B"/>
<path d="M195.5 330.896L329.301 463.845H61.6991L195.5 330.896Z" fill="#25A040"/>
<path d="M195.105 271.807L324.457 406.972H65.7526L195.105 271.807Z" fill="#24B143"/>
<path d="M195.105 226.013L297.081 337.912H93.1288L195.105 226.013Z" fill="#25BB46"/>
<path d="M195.5 187.606L294.396 266.267H96.6035L195.5 187.606Z" fill="#1BC841"/>
<path d="M196.685 180.22L278.814 225.644H114.557L196.685 180.22Z" fill="#1BC040"/>
<path d="M197.081 119.654L276.129 200.531H118.032L197.081 119.654Z" fill="#21C946"/>
<path d="M195.5 88.6328L258.123 152.892H132.877L195.5 88.6328Z" fill="#29B849"/>
<path d="M195.105 45.7935L247.12 110.052H143.09L195.105 45.7935Z" fill="#30CF53"/>
<path d="M195.105 0L243.013 68.6903H147.197L195.105 0Z" fill="#38E15D"/>
<rect x="235.783" y="564.823" width="16.5959" height="118.177" fill="#56533B"/>
<path d="M242.5 462.896L376.301 595.845H108.699L242.5 462.896Z" fill="#25A040"/>
<path d="M242.105 403.807L371.457 538.972H112.753L242.105 403.807Z" fill="#24B143"/>
<path d="M242.105 358.013L344.081 469.912H140.129L242.105 358.013Z" fill="#25BB46"/>
<path d="M242.5 319.606L341.396 398.267H143.604L242.5 319.606Z" fill="#1BC841"/>
<path d="M243.685 312.22L325.814 357.644H161.557L243.685 312.22Z" fill="#1BC040"/>
<path d="M244.081 251.654L323.129 332.531H165.032L244.081 251.654Z" fill="#21C946"/>
<path d="M242.5 220.633L305.123 284.892H179.877L242.5 220.633Z" fill="#29B849"/>
<path d="M242.105 177.793L294.12 242.052H190.09L242.105 177.793Z" fill="#30CF53"/>
<path d="M242.105 132L290.013 200.69H194.197L242.105 132Z" fill="#2FDD55"/>
<path d="M399 716.479C399 716.479 314.105 726 199.06 726C84.0143 726 0 716.479 0 716.479C0 716.479 78.2891 651 193.334 651C308.38 651 399 716.479 399 716.479Z" fill="#C4C4AE"/>
<path d="M625 690.383C625 690.383 576.063 698 509.746 698C443.429 698 395 690.383 395 690.383C395 690.383 440.129 638 506.446 638C572.763 638 625 690.383 625 690.383Z" fill="#B5B599"/>
<rect x="386.783" y="592.823" width="16.5959" height="118.177" fill="#56533B"/>
<path d="M393.5 490.896L527.301 623.845H259.699L393.5 490.896Z" fill="#25A040"/>
<path d="M393.105 431.807L522.457 566.972H263.753L393.105 431.807Z" fill="#24B143"/>
<path d="M393.105 386.013L495.081 497.912H291.129L393.105 386.013Z" fill="#25BB46"/>
<path d="M393.5 347.606L492.396 426.267H294.604L393.5 347.606Z" fill="#1BC841"/>
<path d="M394.685 340.22L476.814 385.644H312.557L394.685 340.22Z" fill="#1BC040"/>
<path d="M395.081 279.654L474.129 360.531H316.032L395.081 279.654Z" fill="#21C946"/>
<path d="M393.5 248.633L456.123 312.892H330.877L393.5 248.633Z" fill="#29B849"/>
<path d="M393.105 205.793L445.12 270.052H341.09L393.105 205.793Z" fill="#30CF53"/>
<path d="M393.105 160L441.013 228.69H345.197L393.105 160Z" fill="#23D54A"/>
<path d="M625 738.479C625 738.479 540.105 748 425.06 748C310.014 748 226 738.479 226 738.479C226 738.479 304.289 673 419.334 673C534.38 673 625 738.479 625 738.479Z" fill="#BEBEAA"/>
</svg>
