<svg width="65" height="65" viewBox="0 0 65 65" fill="none" xmlns="http://www.w3.org/2000/svg">
<path d="M40.3046 8.9844L60.2391 17.149C56.1086 10.0802 48.9149 4.76928 40.3046 2.74032V8.9844Z" fill="#282828"/>
<path d="M25.8115 46.5272L53.1436 29.2502L12.7362 23.0538L1.06549 32.8951C1.50168 39.1872 4.09415 44.9363 8.16623 49.516L25.8115 46.5272Z" fill="#333333"/>
<path d="M53.1436 29.2502L63.4302 25.3866C63.4008 25.2471 63.3703 25.108 63.3388 24.9692C62.709 22.1971 61.6537 19.57 60.2391 17.149L40.3046 8.9844L12.7362 23.0538L53.1436 29.2502Z" fill="#565656"/>
<path d="M1 30.9998C1 31.6365 1.02205 32.2685 1.06549 32.8951L12.7362 23.0538L5.78413 15.5453C2.75253 20.0258 1 25.3234 1 30.9998Z" fill="#404040"/>
<path d="M63.4302 25.3866L53.1436 29.2502L53.9313 52.38C61.8611 45.5705 65.4952 35.1875 63.4302 25.3866Z" fill="#545454"/>
<path fill-rule="evenodd" clip-rule="evenodd" d="M8.16623 49.516C12.3417 54.212 18.0728 57.6786 24.63 59.2406L25.8115 46.5272L8.16623 49.516Z" fill="#404040"/>
<path d="M32.5067 60.1592C40.7805 60.1592 48.3095 57.2076 53.9313 52.38L53.1436 29.2502L25.8115 46.5272L24.63 59.2406C27.1476 59.8403 29.7869 60.1592 32.5067 60.1592Z" fill="#404040"/>
<path d="M12.7362 23.0538L40.3046 8.9844V2.74032C37.8108 2.15267 35.1982 1.84033 32.5067 1.84033C21.2394 1.84033 11.3534 7.31418 5.78413 15.5453L12.7362 23.0538Z" fill="#404040"/>
<path d="M24.63 59.2406L24.3983 60.2134L24.63 59.2406ZM8.16623 49.516L7.41891 50.1805L8.16623 49.516ZM60.2391 17.149L61.1025 16.6445L60.2391 17.149ZM5.78413 15.5453L4.95591 14.9849L5.78413 15.5453ZM63.3388 24.9692L64.314 24.7477L63.3388 24.9692ZM63.0786 24.4504L52.792 28.3141L53.4952 30.1864L63.7818 26.3227L63.0786 24.4504ZM53.2798 51.6213C47.8392 56.2934 40.5413 59.1592 32.5067 59.1592V61.1592C41.0198 61.1592 48.7798 58.1218 54.5828 53.1387L53.2798 51.6213ZM52.1442 29.2842L52.9319 52.414L54.9307 52.346L54.143 29.2162L52.1442 29.2842ZM52.6093 28.4049L25.2772 45.6819L26.3458 47.3725L53.6779 30.0955L52.6093 28.4049ZM24.8158 46.4346L23.6343 59.148L25.6257 59.3331L26.8072 46.6197L24.8158 46.4346ZM32.5067 59.1592C22.9857 59.1592 14.5005 55.1351 8.91354 48.8516L7.41891 50.1805C13.389 56.8949 22.4199 61.1592 32.5067 61.1592V59.1592ZM8.33323 50.502L25.9785 47.5131L25.6445 45.5412L7.99922 48.5301L8.33323 50.502ZM8.91354 48.8516C4.97807 44.4255 2.48294 38.8824 2.0631 32.826L0.0678857 32.9643C0.520412 39.4921 3.21022 45.4471 7.41891 50.1805L8.91354 48.8516ZM2.0631 32.826C2.02125 32.2224 2 31.6134 2 30.9998H0C0 31.6596 0.0228536 32.3147 0.0678857 32.9643L2.0631 32.826ZM1.71014 33.6596L13.3809 23.8183L12.0916 22.2893L0.420846 32.1307L1.71014 33.6596ZM12.5847 24.0423L52.992 30.2387L53.2952 28.2618L12.8878 22.0654L12.5847 24.0423ZM60.6181 16.2236L40.6836 8.05901L39.9256 9.90979L59.8601 18.0744L60.6181 16.2236ZM39.85 8.09369L12.2817 22.1631L13.1908 23.9445L40.7592 9.87511L39.85 8.09369ZM2 30.9998C2 25.5338 3.68659 20.4298 6.61236 16.1057L4.95591 14.9849C1.81847 19.6219 0 25.113 0 30.9998H2ZM6.61236 16.1057C11.9911 8.15619 21.5631 2.84033 32.5067 2.84033V0.840332C20.9156 0.840332 10.7157 6.47217 4.95591 14.9849L6.61236 16.1057ZM5.05036 16.2247L12.0025 23.7332L13.47 22.3744L6.51791 14.8659L5.05036 16.2247ZM32.5067 2.84033C35.1207 2.84033 37.6563 3.14366 40.0753 3.71366L40.534 1.76698C37.9653 1.16168 35.2757 0.840332 32.5067 0.840332V2.84033ZM40.0753 3.71366C48.4305 5.68252 55.3893 10.8313 59.3757 17.6535L61.1025 16.6445C56.8279 9.32904 49.3993 3.85603 40.534 1.76698L40.0753 3.71366ZM41.3046 8.9844V2.74032H39.3046V8.9844H41.3046ZM7.41891 50.1805C11.733 55.0325 17.6453 58.6047 24.3983 60.2134L24.8618 58.2678C18.5002 56.7524 12.9503 53.3916 8.91354 48.8516L7.41891 50.1805ZM24.3983 60.2134C26.9915 60.8311 29.7086 61.1592 32.5067 61.1592V59.1592C29.8652 59.1592 27.3037 58.8495 24.8618 58.2678L24.3983 60.2134ZM62.4517 25.5928C64.4379 35.0198 60.9458 45.0383 53.2798 51.6213L54.5828 53.1387C62.7764 46.1026 66.5525 35.3552 64.4087 25.1804L62.4517 25.5928ZM59.3757 17.6535C60.7405 19.9893 61.7571 22.5213 62.3637 25.1908L64.314 24.7477C63.6608 21.8729 62.5669 19.1507 61.1025 16.6445L59.3757 17.6535ZM62.3637 25.1908C62.394 25.3244 62.4234 25.4584 62.4517 25.5928L64.4087 25.1804C64.3782 25.0358 64.3467 24.8915 64.314 24.7477L62.3637 25.1908Z" fill="#F2F2F2"/>
</svg>
