<svg id="visual" viewBox="0 0 900 100" width="900" height="100" xmlns="http://www.w3.org/2000/svg" xmlns:xlink="http://www.w3.org/1999/xlink" version="1.1"><rect x="0" y="0" width="900" height="100" fill="#F2F2F2"></rect><path d="M0 36L21.5 34.7C43 33.3 86 30.7 128.8 33C171.7 35.3 214.3 42.7 257.2 47C300 51.3 343 52.7 385.8 48.5C428.7 44.3 471.3 34.7 514.2 28.5C557 22.3 600 19.7 642.8 18.7C685.7 17.7 728.3 18.3 771.2 23.8C814 29.3 857 39.7 878.5 44.8L900 50L900 0L878.5 0C857 0 814 0 771.2 0C728.3 0 685.7 0 642.8 0C600 0 557 0 514.2 0C471.3 0 428.7 0 385.8 0C343 0 300 0 257.2 0C214.3 0 171.7 0 128.8 0C86 0 43 0 21.5 0L0 0Z" fill="#D3E2E8" stroke-linecap="round" stroke-linejoin="miter"></path></svg>