<svg id="visual" viewBox="0 0 900 100" width="900" height="100" xmlns="http://www.w3.org/2000/svg" xmlns:xlink="http://www.w3.org/1999/xlink" version="1.1"><rect x="0" y="0" width="900" height="100" fill="#D3E2E8"></rect><path d="M0 62L30 54.8C60 47.7 120 33.3 180 28.7C240 24 300 29 360 37.5C420 46 480 58 540 64C600 70 660 70 720 63.5C780 57 840 44 870 37.5L900 31L900 0L870 0C840 0 780 0 720 0C660 0 600 0 540 0C480 0 420 0 360 0C300 0 240 0 180 0C120 0 60 0 30 0L0 0Z" fill="#D1D1C0" stroke-linecap="round" stroke-linejoin="miter"></path></svg>