<svg id="visual" viewBox="0 0 900 100" width="900" height="100" xmlns="http://www.w3.org/2000/svg" xmlns:xlink="http://www.w3.org/1999/xlink" version="1.1"><rect x="0" y="0" width="900" height="100" fill="#F2F2F2"></rect><path d="M0 24L30 22.5C60 21 120 18 180 22.3C240 26.7 300 38.3 360 39.7C420 41 480 32 540 36.2C600 40.3 660 57.7 720 63.3C780 69 840 63 870 60L900 57L900 0L870 0C840 0 780 0 720 0C660 0 600 0 540 0C480 0 420 0 360 0C300 0 240 0 180 0C120 0 60 0 30 0L0 0Z" fill="#E9E9E9" stroke-linecap="round" stroke-linejoin="miter"></path></svg>